<svg height="512pt" viewBox="0 0 512 512" width="512pt" xmlns="http://www.w3.org/2000/svg"><path d="m369.503906 50c-8.410156 0-16.648437.738281-24.660156 2.144531 65.871094 11.554688 116.097656 68.566407 117.132812 137.503907.015626.726562.019532 1.453124.019532 2.179687 0 .800781-.007813 1.601563-.019532 2.40625-1.144531 68.835937-51.335937 125.738281-117.136718 137.277344 8.011718 1.40625 16.25 2.140625 24.664062 2.140625 42.496094 0 80.625-18.691406 106.617188-48.300782 16.425781-27.328124 25.875-59.320312 25.875-93.523437 0-34.207031-9.453125-66.203125-25.878906-93.535156-25.992188-29.601563-64.121094-48.292969-106.613282-48.292969zm0 0" fill="#0586ad"/><path d="m213.539062 98.328125c25.992188-29.621094 64.125-48.328125 106.632813-48.328125 8.414063 0 16.660156.738281 24.671875 2.144531 8.011719-1.40625 16.25-2.144531 24.660156-2.144531 42.492188 0 80.621094 18.691406 106.613282 48.292969-27.777344-46.210938-75.507813-79.054688-131.28125-86.621094-55.78125 7.570313-103.523438 40.425781-131.296876 86.65625zm0 0" fill="#0586ad"/><path d="m476.121094 285.351562c-25.992188 29.609376-64.121094 48.304688-106.617188 48.304688-8.410156 0-16.652344-.738281-24.664062-2.140625-8.011719 1.402344-16.253906 2.140625-24.667969 2.140625-42.503906 0-80.636719-18.699219-106.628906-48.316406 3.984375 6.632812 8.375 12.996094 13.148437 19.042968 8.863282 11.230469 19.023438 21.386719 30.253906 30.25 24.859376 19.625 54.972657 32.886719 87.878907 37.351563 55.777343-7.5625 103.519531-40.410156 131.296875-86.632813zm0 0" fill="#0586ad"/><g fill-rule="evenodd"><path d="m207.609375 334.632812c-11.226563-8.863281-21.386719-19.019531-30.25-30.25l-31.140625 31.140626 30.253906 30.25zm0 0" fill="#7aeae7"/><path d="m184.035156 373.339844-16.089844-16.089844-6.203124-6.207031-119.300782 119.304687c-8.269531 8.269532-11.054687 20.03125-8.359375 30.652344 10.625 2.695312 22.382813-.085938 30.652344-8.359375zm0 0" fill="#3b4268"/><path d="m342.085938 51.699219c-67.773438 10.589843-119.914063 69.464843-119.914063 140.128906s52.140625 129.539063 119.914063 140.128906c67.773437-10.589843 119.914062-69.464843 119.914062-140.128906s-52.140625-129.539063-119.914062-140.128906zm18.382812 150.425781v40.296875c0 22.164063-18.132812 40.296875-40.296875 40.296875-22.167969 0-40.296875-18.132812-40.296875-40.296875v-80.59375h10.070312v-15.113281c0-8.902344 3.902344-16.9375 10.074219-22.476563 5.355469-4.8125 12.429688-7.746093 20.148438-7.746093 7.726562 0 14.792969 2.933593 20.148437 7.746093 6.175782 5.539063 10.074219 13.574219 10.074219 22.476563v15.113281h10.074219v40.296875zm0 0" fill="#7aeae7"/><path d="m340.320312 124.234375c-1.546874-1.386719-3.238281-2.609375-5.039062-3.660156-1.804688 1.050781-3.496094 2.273437-5.039062 3.660156-6.171876 5.542969-10.074219 13.578125-10.074219 22.480469v15.109375h30.226562v-15.109375c0-8.902344-3.898437-16.9375-10.074219-22.480469zm0 0" fill="#ff5a5a"/><path d="m310.097656 242.421875c0 16.824219 10.453125 31.320313 25.183594 37.328125 14.730469-6.007812 25.1875-20.503906 25.1875-37.328125v-80.59375h-50.371094zm0 0" fill="#ff5a5a"/></g><path d="m389.578125 235.351562c-1.875-1.875-4.417969-2.929687-7.070313-2.929687h-12.039062v-20.296875h32.816406c5.519532 0 10-4.480469 10-10 0-5.523438-4.480468-10-10-10h-32.816406v-20.296875h12.039062c2.652344 0 5.195313-1.054687 7.070313-2.929687l20.777344-20.78125c3.902343-3.90625 3.902343-10.238282-.003907-14.140626-3.902343-3.90625-10.234374-3.90625-14.140624 0l-17.847657 17.851563h-17.96875v-5.113281c0-10.183594-3.8125-19.488282-10.074219-26.582032v-19.191406c0-5.523437-4.480468-10-10-10-5.523437 0-10 4.476563-10 10v6.851563c-3.246093-.847657-6.644531-1.300781-10.152343-1.300781-3.503907 0-6.902344.453124-10.144531 1.300781v-6.851563c0-5.523437-4.480469-10-10-10-5.523438 0-10 4.476563-10 10v19.191406c-6.261719 7.09375-10.074219 16.398438-10.074219 26.582032v5.113281h-17.96875l-17.851563-17.851563c-3.902344-3.902343-10.234375-3.90625-14.140625 0s-3.90625 10.238282-.003906 14.140626l20.78125 20.78125c1.875 1.875 4.417969 2.929687 7.070313 2.929687h12.039062v20.296875h-32.816406c-5.523438 0-10 4.476562-10 10s4.476562 10 10 10h32.816406v20.296875h-12.039062c-2.652344 0-5.195313 1.054687-7.070313 2.929687l-20.78125 20.777344c-3.902344 3.90625-3.902344 10.238282 0 14.144532 1.953125 1.953124 4.515625 2.925781 7.074219 2.925781s5.117187-.972657 7.070312-2.925781l17.847656-17.851563h8.898438c4.652344 22.960937 24.988281 40.296875 49.296875 40.296875 24.3125 0 44.644531-17.335938 49.296875-40.296875h8.894531l17.851563 17.851563c1.953125 1.953124 4.511718 2.925781 7.070312 2.925781s5.117188-.972657 7.070313-2.925781c3.90625-3.90625 3.90625-10.238282 0-14.144532zm-89.632813-88.636718c0-11.152344 9.074219-20.222656 20.226563-20.222656 11.148437 0 20.222656 9.070312 20.222656 20.222656v5.113281h-40.449219zm30.226563 124.300781v-68.890625c0-5.523438-4.476563-10-10-10s-10 4.476562-10 10v68.890625c-11.804687-4.140625-20.296875-15.390625-20.296875-28.59375v-70.59375h60.589844v70.59375c.003906 13.203125-8.488282 24.453125-20.292969 28.59375zm0 0"/><path d="m320.171875 0c-105.773437 0-191.828125 86.054688-191.828125 191.828125 0 41.578125 13.300781 80.105469 35.867188 111.5625l-17.988282 17.988281-.492187-.488281c-1.875-1.875-4.417969-2.929687-7.070313-2.929687s-5.195312 1.054687-7.070312 2.929687l-119.300782 119.300781c-7.925781 7.925782-12.289062 18.492188-12.289062 29.757813-.00390625 11.269531 4.363281 21.835937 12.289062 29.761719 7.925782 7.925781 18.492188 12.289062 29.761719 12.289062 11.265625 0 21.832031-4.363281 29.757813-12.289062l119.296875-119.300782c3.90625-3.90625 3.90625-10.234375 0-14.140625l-.488281-.492187 17.988281-17.992188c31.457031 22.566406 69.984375 35.871094 111.566406 35.871094 105.769531 0 191.824219-86.054688 191.824219-191.828125s-86.054688-191.828125-191.824219-191.828125zm-262.507813 485.570312c-4.144531 4.144532-9.691406 6.429688-15.613281 6.429688-5.925781 0-11.472656-2.285156-15.621093-6.433594-4.148438-4.144531-6.433594-9.691406-6.429688-15.617187 0-5.921875 2.28125-11.46875 6.433594-15.617188l112.226562-112.230469.453125.453126c.011719.011718.023438.027343.035157.039062l30.253906 30.25.492187.496094zm118.808594-133.9375-16.109375-16.109374 16.421875-16.417969c5.046875 5.679687 10.425782 11.058593 16.105469 16.109375zm143.699219 12.023438c-94.746094 0-171.828125-77.082031-171.828125-171.828125s77.082031-171.828125 171.828125-171.828125 171.828125 77.082031 171.828125 171.828125-77.082031 171.828125-171.828125 171.828125zm0 0"/><path d="m464.550781 144.863281c-1.710937-5.253906-7.355469-8.125-12.605469-6.417969-5.25 1.710938-8.121093 7.351563-6.414062 12.601563 7.910156 24.3125 8.589844 50.210937 1.972656 74.902344-1.429687 5.332031 1.738282 10.816406 7.070313 12.246093.867187.234376 1.738281.34375 2.597656.34375 4.414063 0 8.453125-2.945312 9.652344-7.414062 7.617187-28.4375 6.832031-58.265625-2.273438-86.261719zm0 0"/><path d="m451.84375 116.246094-.175781-.308594c-2.75-4.789062-8.863281-6.445312-13.652344-3.691406-4.789063 2.75-6.441406 8.863281-3.691406 13.652344l.152343.269531c1.847657 3.230469 5.222657 5.039062 8.691407 5.039062 1.683593 0 3.390625-.425781 4.953125-1.320312 4.796875-2.738281 6.460937-8.847657 3.722656-13.640625zm0 0"/></svg>